<?xml version="1.0" standalone="no"?>
<!DOCTYPE svg PUBLIC "-//W3C//DTD SVG 20010904//EN"
 "http://www.w3.org/TR/2001/REC-SVG-20010904/DTD/svg10.dtd">
<svg version="1.0" xmlns="http://www.w3.org/2000/svg"
 width="700.000000pt" height="700.000000pt" viewBox="0 0 700.000000 700.000000"
 preserveAspectRatio="xMidYMid meet">
<metadata>
Created by potrace 1.11, written by Peter Selinger 2001-2013
</metadata>
<g transform="translate(0.000000,700.000000) scale(0.100000,-0.100000)"
fill="#000000" stroke="none">
<path d="M1130 6993 c-260 -41 -447 -117 -630 -256 -69 -53 -192 -173 -225
-221 -11 -16 -29 -40 -41 -55 -89 -113 -184 -337 -211 -496 -3 -16 -9 -50 -13
-75 -5 -25 -9 -1096 -9 -2380 0 -2577 -3 -2434 65 -2638 101 -301 302 -546
579 -705 83 -48 238 -112 295 -122 18 -3 36 -8 40 -10 12 -7 144 -26 218 -31
70 -4 72 -4 72 18 1 13 1 1302 2 2865 l0 2841 1662 -2 c913 -1 1677 -6 1696
-9 198 -41 299 -74 419 -138 367 -197 613 -550 666 -959 12 -94 14 -919 2
-965 -2 -11 -8 -41 -11 -67 -4 -25 -13 -65 -21 -87 -8 -23 -14 -42 -13 -44 4
-7 -40 -123 -73 -192 -54 -114 -127 -221 -216 -315 -76 -81 -194 -178 -263
-216 -19 -10 -37 -21 -40 -24 -13 -13 -143 -71 -210 -93 -109 -37 -208 -58
-312 -65 -51 -4 -668 -7 -1370 -7 l-1278 0 0 -1273 0 -1272 1968 1 c2072 1
2010 0 2183 44 128 33 271 99 387 180 147 101 282 245 374 400 73 123 139 300
155 415 3 19 9 55 14 80 9 49 6 4759 -3 4800 -4 14 -14 59 -23 100 -38 161
-95 286 -219 470 -32 49 -181 200 -241 246 -158 119 -327 195 -535 239 l-115
24 -2350 -1 c-1292 0 -2361 -3 -2375 -5z"/>
<path d="M1910 4135 l0 -955 1304 1 c1447 0 1373 -3 1520 68 148 72 266 205
323 366 l28 80 0 430 c0 237 -4 448 -8 470 -42 194 -204 382 -392 452 -115 43
-88 42 -1462 43 l-1313 0 0 -955z"/>
</g>
</svg>
